<?xml version="1.0" encoding="UTF-8"?>
<svg id="Ebene_2" data-name="Ebene 2" xmlns="http://www.w3.org/2000/svg" viewBox="0 0 214.16 322.08">
  <defs>
    <style>
      .cls-1 {
        fill: #93a6d6;
      }

      .cls-1, .cls-2 {
        stroke: #1d1d1b;
        stroke-miterlimit: 10;
        stroke-width: 4px;
      }

      .cls-2 {
        fill: #1d1d1b;
      }
    </style>
  </defs>
  <g id="Ebene_1-2" data-name="Ebene 1">
    <path class="cls-2" d="m37.82,282.48v-150.39c0-2.39-.68-4.73-1.97-6.74h0c-6.74-10.57-23.1-5.79-23.1,6.74v175.45c0,6.92,5.61,12.53,12.53,12.53h111.83c9.89,0,15.89-10.92,10.57-19.27h0c-2.3-3.61-6.29-5.8-10.57-5.8H50.36c-6.92,0-12.53-5.61-12.53-12.53Z"/>
    <path class="cls-2" d="m210.59,306.36h0s-70.23-110.13-70.23-110.13c-3.07-4.82-.77-11.28,4.68-12.99,35.47-11.19,61.19-44.35,61.19-83.51,0-48.29-39.09-87.44-87.34-87.55h0s-81.06,0-81.06,0h-16.34c-4.82,0-8.73,3.91-8.73,8.73v21.56s8.98,14.08,8.98,14.08c4.69,7.36,16.09,4.04,16.09-4.69v-5.88c0-4.82,3.91-8.73,8.73-8.73h72.12s0,0,0,0h.21c.07,0,.14-.01.22-.01,34.52,0,62.5,27.98,62.5,62.5s-27.98,62.5-62.5,62.5c-.14,0-.28,0-.43-.01h0s-13.84,0-13.84,0c-6.89,0-11.07,7.61-7.36,13.42l.37.58h0s89.16,139.83,89.16,139.83c1.6,2.51,4.38,4.04,7.36,4.04h9.05c6.89,0,11.07-7.61,7.36-13.42l-.19-.29Z"/>
    <path class="cls-1" d="m27.07,272.31V121.92c0-2.39-.68-4.73-1.97-6.74h0c-6.74-10.57-23.1-5.79-23.1,6.74v175.45c0,6.92,5.61,12.53,12.53,12.53h111.83c9.89,0,15.89-10.92,10.57-19.27h0c-2.3-3.61-6.29-5.8-10.57-5.8H39.6c-6.92,0-12.53-5.61-12.53-12.53Z"/>
    <path class="cls-1" d="m199.83,296.19h0s-70.23-110.13-70.23-110.13c-3.07-4.82-.77-11.28,4.68-12.99,35.47-11.19,61.19-44.35,61.19-83.51,0-48.29-39.09-87.44-87.34-87.55h0s-81.06,0-81.06,0H10.73c-4.82,0-8.73,3.91-8.73,8.73v21.56s8.98,14.08,8.98,14.08c4.69,7.36,16.09,4.04,16.09-4.69v-5.88c0-4.82,3.91-8.73,8.73-8.73h72.12s0,0,0,0h.21c.07,0,.14-.01.22-.01,34.52,0,62.5,27.98,62.5,62.5s-27.98,62.5-62.5,62.5c-.14,0-.28,0-.43-.01h0s-13.84,0-13.84,0c-6.89,0-11.07,7.61-7.36,13.42l.37.58h0s89.16,139.83,89.16,139.83c1.6,2.51,4.38,4.04,7.36,4.04h9.05c6.89,0,11.07-7.61,7.36-13.42l-.19-.29Z"/>
  </g>
</svg>