<?xml version="1.0" encoding="UTF-8"?>
<svg id="Ebene_2" data-name="Ebene 2" xmlns="http://www.w3.org/2000/svg" viewBox="0 0 549.11 560.15">
  <defs>
    <style>
      .cls-1 {
        fill: #f6c942;
      }

      .cls-1, .cls-2 {
        stroke-miterlimit: 10;
      }

      .cls-1, .cls-2, .cls-3, .cls-4, .cls-5 {
        stroke: #282825;
        stroke-width: 8px;
      }

      .cls-2, .cls-5 {
        fill: #282825;
      }

      .cls-3 {
        fill: none;
      }

      .cls-3, .cls-4, .cls-5 {
        stroke-linejoin: round;
      }

      .cls-4 {
        fill: #fff;
      }
    </style>
  </defs>
  <g id="Ebene_1-2" data-name="Ebene 1">
    <path class="cls-2" d="m541.6,250.89L325.74,35.03c-13.98-2.3-28.32-3.52-42.95-3.52C137.92,31.52,20.48,148.96,20.48,293.83s117.44,262.32,262.32,262.32,262.32-117.44,262.32-262.32c0-14.63-1.22-28.97-3.52-42.95Z"/>
    <path class="cls-1" d="m525.12,223.37L309.26,7.52c-13.98-2.3-28.32-3.52-42.95-3.52C121.44,4,4,121.44,4,266.32s117.44,262.32,262.32,262.32,262.32-117.44,262.32-262.32c0-14.63-1.22-28.97-3.52-42.95Z"/>
    <path class="cls-4" d="m522.64,221.67L310.37,9.4c19.11,107.99,104.28,193.16,212.27,212.27Z"/>
    <circle class="cls-4" cx="338.29" cy="221.67" r="55.49"/>
    <circle class="cls-4" cx="180.53" cy="221.67" r="55.49"/>
    <circle class="cls-5" cx="165.17" cy="201.87" r="15.36"/>
    <circle class="cls-5" cx="319.42" cy="201.87" r="15.36"/>
    <path class="cls-3" d="m125.04,307.08c6.65,74.91,65.01,132.76,133.95,132.99,69.25.24,128.11-57.74,134.79-132.99"/>
  </g>
</svg>