<?xml version="1.0" encoding="UTF-8"?>
<svg id="Ebene_2" data-name="Ebene 2" xmlns="http://www.w3.org/2000/svg" viewBox="0 0 592.1 599.7">
  <defs>
    <style>
      .cls-1 {
        fill: #1ea094;
      }

      .cls-1, .cls-2, .cls-3, .cls-4 {
        stroke: #282825;
        stroke-miterlimit: 10;
      }

      .cls-1, .cls-2, .cls-4 {
        stroke-width: 8px;
      }

      .cls-2 {
        fill: #282825;
      }

      .cls-3 {
        stroke-width: 5px;
      }

      .cls-3, .cls-4 {
        fill: none;
      }
    </style>
  </defs>
  <g id="Ebene_1-2" data-name="Ebene 1">
    <circle class="cls-2" cx="301.24" cy="308.85" r="286.85"/>
    <circle class="cls-1" cx="290.85" cy="290.85" r="286.85"/>
    <line class="cls-3" x1="290.85" y1="18.48" x2="290.85" y2="53.33"/>
    <line class="cls-3" x1="220.36" y1="27.76" x2="229.38" y2="61.42"/>
    <line class="cls-3" x1="154.67" y1="54.97" x2="172.09" y2="85.15"/>
    <line class="cls-3" x1="98.25" y1="98.25" x2="122.9" y2="122.9"/>
    <line class="cls-3" x1="54.97" y1="154.67" x2="85.15" y2="172.09"/>
    <line class="cls-3" x1="27.76" y1="220.36" x2="61.42" y2="229.38"/>
    <line class="cls-3" x1="18.48" y1="290.85" x2="53.33" y2="290.85"/>
    <line class="cls-3" x1="27.76" y1="361.35" x2="61.42" y2="352.33"/>
    <line class="cls-3" x1="54.97" y1="427.04" x2="85.15" y2="409.61"/>
    <line class="cls-3" x1="98.25" y1="483.45" x2="122.9" y2="458.81"/>
    <line class="cls-3" x1="154.67" y1="526.74" x2="172.09" y2="496.55"/>
    <line class="cls-3" x1="220.36" y1="553.95" x2="229.38" y2="520.28"/>
    <line class="cls-3" x1="290.85" y1="563.23" x2="290.85" y2="528.38"/>
    <line class="cls-3" x1="361.35" y1="553.95" x2="352.33" y2="520.28"/>
    <line class="cls-3" x1="427.04" y1="526.74" x2="409.61" y2="496.55"/>
    <line class="cls-3" x1="483.45" y1="483.45" x2="458.81" y2="458.81"/>
    <line class="cls-3" x1="526.74" y1="427.04" x2="496.55" y2="409.61"/>
    <line class="cls-3" x1="553.95" y1="361.35" x2="520.28" y2="352.33"/>
    <line class="cls-3" x1="563.23" y1="290.85" x2="528.38" y2="290.85"/>
    <line class="cls-3" x1="553.95" y1="220.36" x2="520.28" y2="229.38"/>
    <line class="cls-3" x1="526.74" y1="154.67" x2="496.55" y2="172.09"/>
    <line class="cls-3" x1="483.45" y1="98.25" x2="458.81" y2="122.9"/>
    <line class="cls-3" x1="427.04" y1="54.97" x2="409.61" y2="85.15"/>
    <line class="cls-3" x1="361.35" y1="27.76" x2="352.33" y2="61.42"/>
    <line class="cls-4" x1="290.85" y1="68.46" x2="290.85" y2="290.85"/>
    <line class="cls-4" x1="510.55" y1="290.85" x2="288.67" y2="288.81"/>
  </g>
</svg>